<svg width="222" height="49" viewBox="0 0 222 49" fill="none" xmlns="http://www.w3.org/2000/svg">
<path d="M210.961 17.3031C211.273 17.3187 211.383 17.5062 211.289 17.8656C211.211 18.1624 210.945 18.7953 210.492 19.764C210.055 20.7328 209.648 21.8031 209.273 22.9749C208.461 25.5531 208.055 27.6859 208.055 29.3734C208.117 30.8734 208.391 31.6234 208.875 31.6234C209.906 29.2015 211.531 26.4593 213.75 23.3968C216.141 19.9437 218.07 18.2171 219.539 18.2171C221.117 18.2171 221.891 19.5453 221.859 22.2015C221.859 25.7015 220.406 29.2796 217.5 32.9359C215.703 34.8265 213.82 35.7718 211.852 35.7718C211.336 35.7718 210.883 35.6781 210.492 35.4906C209.617 38.0062 208.438 42.0609 206.953 47.6546C206.828 48.0765 206.586 48.2093 206.227 48.0531C205.148 47.5374 204.609 46.5531 204.609 45.0999C204.609 42.6312 205.594 39.0843 207.562 34.4593C206.203 33.2874 205.523 31.5921 205.523 29.3734C205.523 26.1703 207.148 22.2171 210.398 17.514C210.523 17.3734 210.711 17.3031 210.961 17.3031ZM211.805 33.0296C214.07 33.0296 216.172 31.3031 218.109 27.8499C219.188 25.6312 219.727 23.8109 219.727 22.389C219.727 21.7015 219.461 21.3578 218.93 21.3578C217.57 21.3578 215.141 25.0531 211.641 32.4437C211.5 32.8031 211.555 32.9984 211.805 33.0296Z" fill="#006AFF"/>
<path d="M192 36.4984C190.375 36.4984 189.367 33.8421 188.977 28.5296C188.43 28.0765 188.156 27.6624 188.156 27.2874C188.156 26.6937 188.297 26.4203 188.578 26.4671C188.656 26.4984 188.758 26.514 188.883 26.514C188.883 24.139 189.148 22.3734 189.68 21.2171C190.352 19.7171 191.57 18.889 193.336 18.7328C193.664 18.7015 194.961 18.6859 197.227 18.6859C199.023 18.6859 200.609 18.9749 201.984 19.5531C203.844 20.3343 204.773 21.4984 204.773 23.0453C204.773 25.0765 202.992 26.7093 199.43 27.9437C199.07 28.0843 198.195 28.264 196.805 28.4828C198.352 29.2796 200.43 31.0687 203.039 33.8499C203.555 34.4281 203.812 35.0687 203.812 35.7718C203.812 36.6624 203.523 37.1078 202.945 37.1078C202.648 37.1078 202.391 37.0296 202.172 36.8734C197.219 32.0296 193.945 29.8734 192.352 30.4046C192.383 31.6078 192.695 33.0453 193.289 34.7171C193.508 35.9046 193.078 36.4984 192 36.4984ZM191.953 26.9359C194.297 26.6234 196.508 26.0531 198.586 25.2249C200.664 24.3968 201.703 23.6624 201.703 23.0218C201.703 21.9749 200.516 21.4515 198.141 21.4515C195.734 21.4515 193.773 21.514 192.258 21.639C192.055 22.6546 191.953 24.1703 191.953 26.1859V26.9359Z" fill="#006AFF"/>
<path d="M180.328 18.1234C183.25 18.1234 185.344 20.1781 186.609 24.2874C186.812 25.1156 186.914 26.0531 186.914 27.0999C186.914 31.3499 185.102 34.1156 181.477 35.3968C180.367 35.6937 179.211 35.7562 178.008 35.5843C173.367 35.0843 171.047 32.5374 171.047 27.9437C171.047 24.4281 172.742 21.9906 176.133 20.6312C176.992 18.9593 178.391 18.1234 180.328 18.1234ZM177.656 22.9281C177.297 23.5999 177 23.9359 176.766 23.9359C176.547 23.9359 176.391 23.5531 176.297 22.7874C175 23.3968 174.352 24.9593 174.352 27.4749C174.492 31.5531 176.188 33.5921 179.438 33.5921C182.453 33.5921 184.047 31.5921 184.219 27.5921C184.219 24.4203 183.125 22.4281 180.938 21.6156C180.344 21.3812 179.734 21.3734 179.109 21.5921C178.5 21.8109 178.016 22.2562 177.656 22.9281Z" fill="#006AFF"/>
<path d="M154.008 16.8343C154.273 16.8343 154.391 16.9281 154.359 17.1156C154.344 17.2874 154.289 17.4671 154.195 17.6546C154.086 17.889 154.062 18.1312 154.125 18.3812C154.438 19.5218 156.5 20.2406 160.312 20.5374C162.125 18.4437 164.367 17.3968 167.039 17.3968C168.992 17.5999 169.969 18.4359 169.969 19.9046C169.922 22.1078 167.188 23.3343 161.766 23.5843C160.109 29.0687 159.281 34.0296 159.281 38.4671C159.281 39.5609 159.062 40.1078 158.625 40.1078C157 40.1703 156.133 38.4046 156.023 34.8109C156.023 31.1078 156.852 27.3265 158.508 23.4671C155.992 23.1234 154.047 22.5218 152.672 21.6624C151.766 21.0999 151.312 20.4359 151.312 19.6703C151.312 18.1546 152.211 17.2093 154.008 16.8343ZM163.453 20.5374C165.656 20.5374 166.969 20.0531 167.391 19.0843C167.344 18.8656 167.078 18.7562 166.594 18.7562C165.484 18.7562 164.438 19.3499 163.453 20.5374Z" fill="#006AFF"/>
<path d="M136.992 24.9671C136.977 26.1703 136.539 26.8031 135.68 26.8656C132.32 25.8343 129.57 25.5531 127.43 26.0218C125.289 26.4906 124.219 27.5374 124.219 29.1624C124.219 30.7249 125.07 31.9749 126.773 32.9124C128.477 33.8499 130.836 34.3187 133.852 34.3187C137.93 34.3187 141.016 33.6703 143.109 32.3734C145.203 31.0609 146.25 29.1312 146.25 26.5843C146.25 24.0374 145.188 22.0843 143.062 20.7249C140.938 19.3656 137.883 18.4203 133.898 17.889C129.914 17.3421 127.031 16.4749 125.25 15.2874C123.484 14.0843 122.602 12.5218 122.602 10.5999C122.602 7.8812 124.406 5.53745 128.016 3.5687C131.234 1.80307 135.773 0.92026 141.633 0.92026C142.648 0.82651 143.664 0.912448 144.68 1.17807C145.695 1.4437 146.305 1.96714 146.508 2.74839C146.727 3.52964 145.492 3.97495 142.805 4.08432C136.992 3.97495 133.062 4.3812 131.016 5.30307C127.734 6.47495 126.094 8.17807 126.094 10.4124C126.094 12.7562 129.023 14.3968 134.883 15.3343C140.742 16.2718 144.688 17.7406 146.719 19.7406C148.766 21.7406 149.633 24.4828 149.32 27.9671C149.008 31.4515 147.539 33.8656 144.914 35.2093C142.305 36.5531 139.227 37.2249 135.68 37.2249C131.164 37.2249 127.609 36.5765 125.016 35.2796C122.422 33.9828 121.125 32.014 121.125 29.3734C121.125 27.2484 122.055 25.5999 123.914 24.4281C125.477 23.4281 127.719 22.9281 130.641 22.9281C134.875 23.2406 136.992 23.9203 136.992 24.9671Z" fill="#006AFF"/>
<path d="M109.477 17.3031C109.789 17.3187 109.898 17.5062 109.805 17.8656C109.727 18.1624 109.461 18.7953 109.008 19.764C108.57 20.7328 108.164 21.8031 107.789 22.9749C106.977 25.5531 106.57 27.6859 106.57 29.3734C106.633 30.8734 106.906 31.6234 107.391 31.6234C108.422 29.2015 110.047 26.4593 112.266 23.3968C114.656 19.9437 116.586 18.2171 118.055 18.2171C119.633 18.2171 120.406 19.5453 120.375 22.2015C120.375 25.7015 118.922 29.2796 116.016 32.9359C114.219 34.8265 112.336 35.7718 110.367 35.7718C109.852 35.7718 109.398 35.6781 109.008 35.4906C108.133 38.0062 106.953 42.0609 105.469 47.6546C105.344 48.0765 105.102 48.2093 104.742 48.0531C103.664 47.5374 103.125 46.5531 103.125 45.0999C103.125 42.6312 104.109 39.0843 106.078 34.4593C104.719 33.2874 104.039 31.5921 104.039 29.3734C104.039 26.1703 105.664 22.2171 108.914 17.514C109.039 17.3734 109.227 17.3031 109.477 17.3031ZM110.32 33.0296C112.586 33.0296 114.688 31.3031 116.625 27.8499C117.703 25.6312 118.242 23.8109 118.242 22.389C118.242 21.7015 117.977 21.3578 117.445 21.3578C116.086 21.3578 113.656 25.0531 110.156 32.4437C110.016 32.8031 110.07 32.9984 110.32 33.0296Z" fill="#006AFF"/>
<path d="M97.9688 19.1781C100.172 19.1312 101.648 19.5218 102.398 20.3499C102.648 20.7562 102.656 21.2171 102.422 21.7328C101.875 22.139 100.625 22.3421 98.6719 22.3421H95.2969C94.9062 22.9203 94.4688 24.514 93.9844 27.1234H94.0781C96.5938 26.9203 97.9531 26.8187 98.1562 26.8187C99.25 26.8656 99.7969 27.2328 99.7969 27.9203C99.3281 28.9359 98.3516 29.5218 96.8672 29.6781C95.6797 29.7874 94.5469 29.8578 93.4688 29.889L93.375 32.139C93.4688 33.2171 93.9453 33.7562 94.8047 33.7562C98.3047 33.5843 100.445 33.4203 101.227 33.264C101.57 33.2484 101.742 33.3499 101.742 33.5687C101.742 34.8031 99.6641 35.9203 95.5078 36.9203C94.8828 37.0609 94.2734 37.1312 93.6797 37.1312C91.3672 37.1312 90.2109 35.9749 90.2109 33.6624C90.2109 32.7406 90.3828 31.3499 90.7266 29.4906C89.6328 29.1781 89.0859 28.7796 89.0859 28.2953C89.0859 27.9515 89.7656 27.6703 91.125 27.4515C91.5312 25.4046 91.9766 23.6703 92.4609 22.2484H92.3438C90.7812 22.1078 90 21.7328 90 21.1234C90.0938 20.139 92.75 19.4906 97.9688 19.1781Z" fill="#006AFF"/>
<path d="M84.5156 17.5374C84.4531 17.3812 84.5234 17.3031 84.7266 17.3031C85.8047 17.3031 86.8047 18.9593 87.7266 22.2718C87.9141 23.2249 88.0078 24.3656 88.0078 25.6937C88.0078 32.2249 87.1172 35.4906 85.3359 35.4906C84.3047 35.4906 82.3516 33.2406 79.4766 28.7406C78.2266 26.8968 77.4453 25.8968 77.1328 25.7406C76.7422 31.1781 76.4688 34.1937 76.3125 34.7874C76.25 34.9593 76.1172 35.0374 75.9141 35.0218C74.6016 34.4281 73.9453 33.4124 73.9453 31.9749C73.9453 26.5843 74.6953 22.8499 76.1953 20.7718C76.3828 20.5531 76.6016 20.5218 76.8516 20.6781C78.0547 21.6781 79.3672 23.3968 80.7891 25.8343C82.1484 27.9749 83.3984 29.6624 84.5391 30.8968C85.1484 30.8968 85.4609 29.0843 85.4766 25.4593C85.4766 22.0218 85.1562 19.3812 84.5156 17.5374Z" fill="#006AFF"/>
<path d="M66.6797 19.1781C70.6797 19.2718 72.6797 19.6781 72.6797 20.3968C72.6953 21.3499 70.9141 21.8812 67.3359 21.9906C62.2734 21.9906 59.7109 22.4281 59.6484 23.3031C59.6484 23.7562 62.3672 24.5374 67.8047 25.6468C71.2422 26.3968 72.9609 27.7718 72.9609 29.7718C72.9609 32.0531 70.8359 33.6468 66.5859 34.5531C65.9297 34.6781 65.2109 34.7406 64.4297 34.7406C60.5547 34.7406 57.8359 33.7718 56.2734 31.8343C56.0859 31.4437 55.9922 31.0999 55.9922 30.8031C55.9922 29.5218 57.8203 28.7718 61.4766 28.5531C64.6328 28.6937 66.2109 29.2249 66.2109 30.1468C66.2109 30.6156 65.2734 30.8968 63.3984 30.9906C60.5859 30.9281 59.0391 30.9124 58.7578 30.9437C58.4766 30.9749 58.3359 31.0531 58.3359 31.1781C58.5547 31.8499 60.3672 32.2562 63.7734 32.3968C67.8359 32.3343 69.8672 31.5062 69.8672 29.9124C69.8672 28.6781 66.8672 27.5062 60.8672 26.3968C59.2109 26.0374 58.0781 25.5765 57.4688 25.014C56.875 24.4359 56.5703 23.8343 56.5547 23.2093C56.5547 21.7562 58.1328 20.5999 61.2891 19.7406C62.9297 19.3656 64.7266 19.1781 66.6797 19.1781Z" fill="#006AFF"/>
<path d="M55.7344 4.5062C58 4.5062 59.3281 5.08432 59.7188 6.24057C62.1094 6.24057 63.3047 7.14682 63.3047 8.95932C63.3047 10.7406 61.75 12.5218 58.6406 14.3031C56.9531 15.1468 55.1484 15.5687 53.2266 15.5687C52.1797 15.5687 50.9844 15.3734 49.6406 14.9828C48.9844 15.9515 48.3984 16.4359 47.8828 16.4359C47.7109 16.389 47.6172 16.2249 47.6016 15.9437C47.6016 15.4749 47.7969 14.764 48.1875 13.8109C47.4062 13.1546 47.0156 12.2171 47.0156 10.9984C47.0156 8.51401 48.7969 6.51401 52.3594 4.99838C53.3438 4.67026 54.4688 4.5062 55.7344 4.5062ZM49.8281 10.6234C49.75 11.0296 49.7812 11.3187 49.9219 11.4906C52.375 9.09995 54.6016 7.66245 56.6016 7.17807C52.7109 6.89682 50.4531 8.04526 49.8281 10.6234ZM51.5625 13.2249C51.8438 13.4281 52.6562 13.5921 54 13.7171C56.7969 13.7171 59.125 12.5218 60.9844 10.1312C61.1719 9.84995 61.2656 9.49057 61.2656 9.05307C61.2656 8.53745 61.0078 8.27963 60.4922 8.27963C58.5234 8.27963 55.6484 9.80307 51.8672 12.8499L51.5625 13.2249ZM51.7734 18.7562C52.7109 18.7562 53.2266 20.3656 53.3203 23.5843C53.3203 31.6156 52.6406 35.6312 51.2812 35.6312C50.2656 35.6312 49.6875 33.6937 49.5469 29.8187C49.5469 25.9749 50.125 22.4203 51.2812 19.1546C51.3906 18.9671 51.5547 18.8343 51.7734 18.7562Z" fill="#006AFF"/>
<path d="M6.49219 0.89682C17.1172 0.89682 27.0312 3.6312 36.2344 9.09995C43.1875 13.5062 46.6641 18.2249 46.6641 23.2562C46.6641 28.1937 43.9922 31.7718 38.6484 33.9906C35.5391 35.1312 32.1328 35.7015 28.4297 35.7015C26.3984 35.7015 23.8359 35.3656 20.7422 34.6937C20.5234 37.1937 19.9844 38.4437 19.125 38.4437H18.7266C18.2109 38.4437 17.8047 37.764 17.5078 36.4046C17.3828 35.3734 17.25 34.4359 17.1094 33.5921C10.2188 31.0296 6.77344 28.0218 6.77344 24.5687C6.77344 22.5218 8.32812 20.7718 11.4375 19.3187C13.0938 18.7093 15.1875 18.2328 17.7188 17.889C18.1875 13.1703 18.7266 10.8109 19.3359 10.8109H19.4297C20.0078 10.8109 20.5156 13.139 20.9531 17.7953H22.0547C28.0547 17.7953 32.1406 18.8421 34.3125 20.9359C34.4375 21.0765 34.5 21.2796 34.5 21.5453C34.5 22.764 33.5625 23.7093 31.6875 24.3812C31.2812 24.5218 30.9141 24.5687 30.5859 24.5218C30.1328 24.4281 29.8906 24.2249 29.8594 23.9124C29.8438 23.5843 30.1797 23.2484 30.8672 22.9046C31.5547 22.5453 31.7891 22.3265 31.5703 22.2484C29.6797 21.7796 26.6484 21.5453 22.4766 21.5453H21.0469C20.9844 25.9046 20.9531 29.4124 20.9531 32.0687C22.5469 32.4749 24.8359 32.7484 27.8203 32.889C34.9766 32.6078 39.5312 30.4906 41.4844 26.5374C41.9688 25.5531 42.2109 24.4281 42.2109 23.1624C42.2109 18.5999 38.3594 14.014 30.6562 9.40463C22.6406 5.07651 13.7031 2.91245 3.84375 2.91245C2.5625 2.91245 1.92188 3.05307 1.92188 3.33432C1.92188 3.45932 2.1875 3.6312 2.71875 3.84995C3.25 4.05307 3.52344 4.27963 3.53906 4.52963C3.53906 4.88901 3.40625 5.06088 3.14062 5.04526C1.04688 4.70151 0 3.95932 0 2.8187C0 1.70932 2.16406 1.0687 6.49219 0.89682ZM8.60156 24.7562C8.60156 26.8187 11.4688 28.889 17.2031 30.9671C17.2031 28.3109 17.2734 25.2015 17.4141 21.639C11.5391 22.0765 8.60156 23.1156 8.60156 24.7562Z" fill="#006AFF"/>
</svg>
